<svg xmlns="http://www.w3.org/2000/svg" viewBox="0 0 500 320" width="500" height="320">
<defs>
  <marker id="arr-22c55e" viewBox="0 0 10 10" refX="9" refY="5" markerWidth="5" markerHeight="5" orient="auto"><path d="M0,0 L10,5 L0,10 Z" fill="#2F8B67"/></marker>
  <marker id="arr-22c55e-s" viewBox="0 0 10 10" refX="1" refY="5" markerWidth="5" markerHeight="5" orient="auto"><path d="M10,0 L0,5 L10,10 Z" fill="#2F8B67"/></marker>
  <marker id="arr-8b5cf6" viewBox="0 0 10 10" refX="9" refY="5" markerWidth="5" markerHeight="5" orient="auto"><path d="M0,0 L10,5 L0,10 Z" fill="#7759D6"/></marker>
  <marker id="arr-8b5cf6-s" viewBox="0 0 10 10" refX="1" refY="5" markerWidth="5" markerHeight="5" orient="auto"><path d="M10,0 L0,5 L10,10 Z" fill="#7759D6"/></marker>
</defs>
<rect x="20.0" y="20.0" width="460" height="80" rx="8" fill="#ffc9c9" fill-opacity="0.30" stroke="#ef4444" stroke-opacity="0.30" stroke-width="2"/>
<text x="28.0" y="35.4" text-anchor="start" font-family="Inter, -apple-system, BlinkMacSystemFont, 'Helvetica Neue', Arial, sans-serif" font-size="11.0" fill="#ef4444">Закон/норма</text>
<rect x="20.0" y="120.0" width="460" height="80" rx="8" fill="#d0bfff" fill-opacity="0.30" stroke="#7759D6" stroke-opacity="0.30" stroke-width="2"/>
<text x="28.0" y="135.3" text-anchor="start" font-family="Inter, -apple-system, BlinkMacSystemFont, 'Helvetica Neue', Arial, sans-serif" font-size="11.0" fill="#7759D6">Продукт</text>
<rect x="20.0" y="220.0" width="460" height="80" rx="8" fill="#b2f2bb" fill-opacity="0.30" stroke="#2F8B67" stroke-opacity="0.30" stroke-width="2"/>
<text x="28.0" y="235.3" text-anchor="start" font-family="Inter, -apple-system, BlinkMacSystemFont, 'Helvetica Neue', Arial, sans-serif" font-size="11.0" fill="#2F8B67">Операции</text>
<rect x="130.0" y="42.0" width="160" height="40" rx="8" fill="#ffc9c9" stroke="#ef4444" stroke-width="2"/>
<text x="210.0" y="63.6" text-anchor="middle" font-family="Inter, -apple-system, BlinkMacSystemFont, 'Helvetica Neue', Arial, sans-serif" font-size="11.0" font-weight="normal" fill="#1A2030">Обязательный приём</text>
<rect x="130.0" y="142.0" width="120" height="40" rx="8" fill="#d0bfff" stroke="#7759D6" stroke-width="2"/>
<text x="190.0" y="163.6" text-anchor="middle" font-family="Inter, -apple-system, BlinkMacSystemFont, 'Helvetica Neue', Arial, sans-serif" font-size="11.0" font-weight="normal" fill="#1A2030">Маршрутизация</text>
<rect x="270.0" y="142.0" width="120" height="40" rx="8" fill="#d0bfff" stroke="#7759D6" stroke-width="2"/>
<text x="330.0" y="163.6" text-anchor="middle" font-family="Inter, -apple-system, BlinkMacSystemFont, 'Helvetica Neue', Arial, sans-serif" font-size="11.0" font-weight="normal" fill="#1A2030">Терминалы</text>
<rect x="130.0" y="242.0" width="120" height="40" rx="8" fill="#b2f2bb" stroke="#2F8B67" stroke-width="2"/>
<text x="190.0" y="263.6" text-anchor="middle" font-family="Inter, -apple-system, BlinkMacSystemFont, 'Helvetica Neue', Arial, sans-serif" font-size="11.0" font-weight="normal" fill="#1A2030">Онбординг</text>
<rect x="270.0" y="242.0" width="120" height="40" rx="8" fill="#b2f2bb" stroke="#2F8B67" stroke-width="2"/>
<text x="330.0" y="263.6" text-anchor="middle" font-family="Inter, -apple-system, BlinkMacSystemFont, 'Helvetica Neue', Arial, sans-serif" font-size="11.0" font-weight="normal" fill="#1A2030">Поддержка</text>
<line x1="210.0" y1="82.0" x2="190.0" y2="142.0" stroke="#7759D6" stroke-width="2" marker-end="url(#arr-8b5cf6)"/>
<line x1="210.0" y1="82.0" x2="330.0" y2="142.0" stroke="#7759D6" stroke-width="2" marker-end="url(#arr-8b5cf6)"/>
<line x1="190.0" y1="182.0" x2="190.0" y2="242.0" stroke="#2F8B67" stroke-width="2" marker-end="url(#arr-22c55e)"/>
<line x1="330.0" y1="182.0" x2="330.0" y2="242.0" stroke="#2F8B67" stroke-width="2" marker-end="url(#arr-22c55e)"/>
</svg>