<svg xmlns="http://www.w3.org/2000/svg" viewBox="0 0 520 330" width="520" height="330">
<defs>
  <marker id="arr-Muted" viewBox="0 0 10 10" refX="9" refY="5" markerWidth="5" markerHeight="5" orient="auto"><path d="M0,0 L10,5 L0,10 Z" fill="#1A2030"/></marker>
  <marker id="arr-Muted-s" viewBox="0 0 10 10" refX="1" refY="5" markerWidth="5" markerHeight="5" orient="auto"><path d="M10,0 L0,5 L10,10 Z" fill="#1A2030"/></marker>
  <marker id="arr-Good" viewBox="0 0 10 10" refX="9" refY="5" markerWidth="5" markerHeight="5" orient="auto"><path d="M0,0 L10,5 L0,10 Z" fill="#2F8B67"/></marker>
  <marker id="arr-Good-s" viewBox="0 0 10 10" refX="1" refY="5" markerWidth="5" markerHeight="5" orient="auto"><path d="M10,0 L0,5 L10,10 Z" fill="#2F8B67"/></marker>
  <marker id="arr-AccentA" viewBox="0 0 10 10" refX="9" refY="5" markerWidth="5" markerHeight="5" orient="auto"><path d="M0,0 L10,5 L0,10 Z" fill="#4E63D9"/></marker>
  <marker id="arr-AccentA-s" viewBox="0 0 10 10" refX="1" refY="5" markerWidth="5" markerHeight="5" orient="auto"><path d="M10,0 L0,5 L10,10 Z" fill="#4E63D9"/></marker>
  <marker id="arr-AccentB" viewBox="0 0 10 10" refX="9" refY="5" markerWidth="5" markerHeight="5" orient="auto"><path d="M0,0 L10,5 L0,10 Z" fill="#7759D6"/></marker>
  <marker id="arr-AccentB-s" viewBox="0 0 10 10" refX="1" refY="5" markerWidth="5" markerHeight="5" orient="auto"><path d="M10,0 L0,5 L10,10 Z" fill="#7759D6"/></marker>
</defs>
<rect x="180.0" y="20.0" width="160" height="50" rx="8" fill="#4E63D9" fill-opacity="0.15" stroke="#4E63D9" stroke-width="2"/>
<text x="260.0" y="47.0" text-anchor="middle" font-family="Inter, -apple-system, BlinkMacSystemFont, 'Helvetica Neue', Arial, sans-serif" font-size="14" font-weight="normal" fill="#1A2030">AID карты</text>
<line x1="260.0" y1="70.0" x2="260.0" y2="110.0" stroke="#5C647A" stroke-width="2" marker-end="url(#arr-Muted)"/>
<polygon points="260.0,110.0 370.0,160.0 260.0,210.0 150.0,160.0" fill="#B8821C" fill-opacity="0.18" stroke="#B8821C" stroke-width="2"/>
<text x="260.0" y="161.9" text-anchor="middle" font-family="Inter, -apple-system, BlinkMacSystemFont, 'Helvetica Neue', Arial, sans-serif" font-size="13" font-weight="normal" fill="#1A2030">Маршрутизация ядра</text>
<line x1="205.0" y1="195.0" x2="110.0" y2="250.0" stroke="#4E63D9" stroke-width="2" marker-end="url(#arr-AccentA)"/>
<line x1="260.0" y1="210.0" x2="260.0" y2="260.0" stroke="#7759D6" stroke-width="2" marker-end="url(#arr-AccentB)"/>
<line x1="315.0" y1="195.0" x2="410.0" y2="250.0" stroke="#2F8B67" stroke-width="2" marker-end="url(#arr-Good)"/>
<rect x="20.0" y="260.0" width="140" height="50" rx="8" fill="#4E63D9" fill-opacity="0.15" stroke="#4E63D9" stroke-width="2"/>
<text x="90.0" y="287.0" text-anchor="middle" font-family="Inter, -apple-system, BlinkMacSystemFont, 'Helvetica Neue', Arial, sans-serif" font-size="14" font-weight="normal" fill="#1A2030">qVSDC (Visa)</text>
<rect x="190.0" y="260.0" width="140" height="50" rx="8" fill="#7759D6" fill-opacity="0.15" stroke="#7759D6" stroke-width="2"/>
<text x="260.0" y="287.0" text-anchor="middle" font-family="Inter, -apple-system, BlinkMacSystemFont, 'Helvetica Neue', Arial, sans-serif" font-size="14" font-weight="normal" fill="#1A2030">M/Chip (MC)</text>
<rect x="360.0" y="260.0" width="140" height="50" rx="8" fill="#2F8B67" fill-opacity="0.15" stroke="#2F8B67" stroke-width="2"/>
<text x="430.0" y="287.0" text-anchor="middle" font-family="Inter, -apple-system, BlinkMacSystemFont, 'Helvetica Neue', Arial, sans-serif" font-size="14" font-weight="normal" fill="#1A2030">Мир Kernel</text>
</svg>