<svg xmlns="http://www.w3.org/2000/svg" viewBox="0 0 740 529" width="740" height="529">
<defs>
  <marker id="arr-1e1e1e" viewBox="0 0 10 10" refX="9" refY="5" markerWidth="5" markerHeight="5" orient="auto"><path d="M0,0 L10,5 L0,10 Z" fill="#1A2030"/></marker>
  <marker id="arr-1e1e1e-s" viewBox="0 0 10 10" refX="1" refY="5" markerWidth="5" markerHeight="5" orient="auto"><path d="M10,0 L0,5 L10,10 Z" fill="#1A2030"/></marker>
  <marker id="arr-22c55e" viewBox="0 0 10 10" refX="9" refY="5" markerWidth="5" markerHeight="5" orient="auto"><path d="M0,0 L10,5 L0,10 Z" fill="#2F8B67"/></marker>
  <marker id="arr-22c55e-s" viewBox="0 0 10 10" refX="1" refY="5" markerWidth="5" markerHeight="5" orient="auto"><path d="M10,0 L0,5 L10,10 Z" fill="#2F8B67"/></marker>
  <marker id="arr-4a9eed" viewBox="0 0 10 10" refX="9" refY="5" markerWidth="5" markerHeight="5" orient="auto"><path d="M0,0 L10,5 L0,10 Z" fill="#4E63D9"/></marker>
  <marker id="arr-4a9eed-s" viewBox="0 0 10 10" refX="1" refY="5" markerWidth="5" markerHeight="5" orient="auto"><path d="M10,0 L0,5 L10,10 Z" fill="#4E63D9"/></marker>
  <marker id="arr-ef4444" viewBox="0 0 10 10" refX="9" refY="5" markerWidth="5" markerHeight="5" orient="auto"><path d="M0,0 L10,5 L0,10 Z" fill="#ef4444"/></marker>
  <marker id="arr-ef4444-s" viewBox="0 0 10 10" refX="1" refY="5" markerWidth="5" markerHeight="5" orient="auto"><path d="M10,0 L0,5 L10,10 Z" fill="#ef4444"/></marker>
  <marker id="arr-f59e0b" viewBox="0 0 10 10" refX="9" refY="5" markerWidth="5" markerHeight="5" orient="auto"><path d="M0,0 L10,5 L0,10 Z" fill="#B8821C"/></marker>
  <marker id="arr-f59e0b-s" viewBox="0 0 10 10" refX="1" refY="5" markerWidth="5" markerHeight="5" orient="auto"><path d="M10,0 L0,5 L10,10 Z" fill="#B8821C"/></marker>
</defs>
<text x="102.0" y="37.0" text-anchor="start" font-family="Inter, -apple-system, BlinkMacSystemFont, 'Helvetica Neue', Arial, sans-serif" font-size="20" fill="#1A2030">Жизненный цикл consent (Open Banking UK)</text>
<ellipse cx="390.0" cy="65.0" rx="13.0" ry="13.0" fill="#1A2030" stroke="#1A2030" stroke-width="2"/>
<line x1="390.0" y1="78.0" x2="390.0" y2="94.0" stroke="#1A2030" stroke-width="2" marker-end="url(#arr-1e1e1e)"/>
<rect x="245.0" y="94.0" width="290" height="50" rx="8" fill="#B8821C" fill-opacity="0.18" stroke="#B8821C" stroke-width="2"/>
<text x="390.0" y="121.3" text-anchor="middle" font-family="Inter, -apple-system, BlinkMacSystemFont, 'Helvetica Neue', Arial, sans-serif" font-size="16.0" font-weight="normal" fill="#1A2030">AwaitingAuthorisation</text>
<line x1="320.0" y1="144.0" x2="165.0" y2="219.0" stroke="#4E63D9" stroke-width="2" marker-end="url(#arr-4a9eed)"/>
<text x="242.5" y="171.5" text-anchor="middle" font-family="Inter, -apple-system, BlinkMacSystemFont, 'Helvetica Neue', Arial, sans-serif" font-size="14.0" fill="#1A2030">подтверждает</text>
<line x1="470.0" y1="144.0" x2="635.0" y2="219.0" stroke="#ef4444" stroke-width="2" marker-end="url(#arr-ef4444)"/>
<text x="552.5" y="171.5" text-anchor="middle" font-family="Inter, -apple-system, BlinkMacSystemFont, 'Helvetica Neue', Arial, sans-serif" font-size="14.0" fill="#1A2030">отклоняет</text>
<rect x="80.0" y="219.0" width="170" height="50" rx="8" fill="#a5d8ff" stroke="#4E63D9" stroke-width="2"/>
<text x="165.0" y="246.3" text-anchor="middle" font-family="Inter, -apple-system, BlinkMacSystemFont, 'Helvetica Neue', Arial, sans-serif" font-size="16.0" font-weight="normal" fill="#1A2030">Authorised</text>
<rect x="535.0" y="219.0" width="170" height="50" rx="8" fill="#ffc9c9" stroke="#ef4444" stroke-width="2"/>
<text x="620.0" y="246.3" text-anchor="middle" font-family="Inter, -apple-system, BlinkMacSystemFont, 'Helvetica Neue', Arial, sans-serif" font-size="16.0" font-weight="normal" fill="#1A2030">Rejected</text>
<line x1="165.0" y1="269.0" x2="165.0" y2="359.0" stroke="#2F8B67" stroke-width="2" marker-end="url(#arr-22c55e)"/>
<text x="225.0" y="318.0" text-anchor="middle" font-family="Inter, -apple-system, BlinkMacSystemFont, 'Helvetica Neue', Arial, sans-serif" font-size="14.0" fill="#1A2030">использовано</text>
<rect x="80.0" y="359.0" width="170" height="50" rx="8" fill="#b2f2bb" stroke="#2F8B67" stroke-width="2"/>
<text x="165.0" y="386.3" text-anchor="middle" font-family="Inter, -apple-system, BlinkMacSystemFont, 'Helvetica Neue', Arial, sans-serif" font-size="16.0" font-weight="normal" fill="#1A2030">Consumed</text>
<rect x="20.0" y="439.0" width="700" height="70" rx="8" fill="#B8821C" fill-opacity="0.18" stroke="#B8821C" stroke-width="1"/>
<text x="32.0" y="462.8" text-anchor="start" font-family="Inter, -apple-system, BlinkMacSystemFont, 'Helvetica Neue', Arial, sans-serif" font-size="15" fill="#1A2030">! Consumed -- согласие использовано для создания платёжного ресурса.</text>
<text x="32.0" y="488.8" text-anchor="start" font-family="Inter, -apple-system, BlinkMacSystemFont, 'Helvetica Neue', Arial, sans-serif" font-size="15" fill="#1A2030">Деньги не обязательно финальны. Статус платёжного ресурса -- отдельно.</text>
</svg>