<svg xmlns="http://www.w3.org/2000/svg" viewBox="0 0 1120 312" width="1120" height="312">
<defs>
  <marker id="arr-AccentA" viewBox="0 0 10 10" refX="9" refY="5" markerWidth="5" markerHeight="5" orient="auto"><path d="M0,0 L10,5 L0,10 Z" fill="#4E63D9"/></marker>
  <marker id="arr-AccentA-s" viewBox="0 0 10 10" refX="1" refY="5" markerWidth="5" markerHeight="5" orient="auto"><path d="M10,0 L0,5 L10,10 Z" fill="#4E63D9"/></marker>
  <marker id="arr-Muted" viewBox="0 0 10 10" refX="9" refY="5" markerWidth="5" markerHeight="5" orient="auto"><path d="M0,0 L10,5 L0,10 Z" fill="#5C647A"/></marker>
  <marker id="arr-Muted-s" viewBox="0 0 10 10" refX="1" refY="5" markerWidth="5" markerHeight="5" orient="auto"><path d="M10,0 L0,5 L10,10 Z" fill="#5C647A"/></marker>
  <marker id="arr-AccentB" viewBox="0 0 10 10" refX="9" refY="5" markerWidth="5" markerHeight="5" orient="auto"><path d="M0,0 L10,5 L0,10 Z" fill="#7759D6"/></marker>
  <marker id="arr-AccentB-s" viewBox="0 0 10 10" refX="1" refY="5" markerWidth="5" markerHeight="5" orient="auto"><path d="M10,0 L0,5 L10,10 Z" fill="#7759D6"/></marker>
  <marker id="arr-Warn" viewBox="0 0 10 10" refX="9" refY="5" markerWidth="5" markerHeight="5" orient="auto"><path d="M0,0 L10,5 L0,10 Z" fill="#B8821C"/></marker>
  <marker id="arr-Warn-s" viewBox="0 0 10 10" refX="1" refY="5" markerWidth="5" markerHeight="5" orient="auto"><path d="M10,0 L0,5 L10,10 Z" fill="#B8821C"/></marker>
</defs>
<rect x="20.0" y="20.0" width="365" height="195" rx="8" fill="#4E63D9" fill-opacity="0.15" stroke="#4E63D9" stroke-width="2"/>
<rect x="395.0" y="20.0" width="335" height="195" rx="8" fill="#B8821C" fill-opacity="0.18" stroke="#B8821C" stroke-width="2"/>
<rect x="740.0" y="20.0" width="360" height="195" rx="8" fill="#2F8B67" fill-opacity="0.15" stroke="#2F8B67" stroke-width="2"/>
<rect x="32.0" y="64.0" width="72" height="42" rx="8" fill="#4E63D9" fill-opacity="0.15" stroke="#4E63D9" stroke-width="2"/>
<text x="68.0" y="86.9" text-anchor="middle" font-family="Inter, -apple-system, BlinkMacSystemFont, 'Helvetica Neue', Arial, sans-serif" font-size="13" font-weight="normal" fill="#1A2030">Терм.</text>
<rect x="117.0" y="64.0" width="72" height="42" rx="8" fill="#4E63D9" fill-opacity="0.15" stroke="#4E63D9" stroke-width="2"/>
<text x="153.0" y="86.9" text-anchor="middle" font-family="Inter, -apple-system, BlinkMacSystemFont, 'Helvetica Neue', Arial, sans-serif" font-size="13" font-weight="normal" fill="#1A2030">Эквайер</text>
<rect x="202.0" y="64.0" width="60" height="42" rx="8" fill="#7759D6" fill-opacity="0.15" stroke="#7759D6" stroke-width="2"/>
<text x="232.0" y="86.9" text-anchor="middle" font-family="Inter, -apple-system, BlinkMacSystemFont, 'Helvetica Neue', Arial, sans-serif" font-size="13" font-weight="normal" fill="#1A2030">Сеть</text>
<rect x="275.0" y="64.0" width="80" height="42" rx="8" fill="#4E63D9" fill-opacity="0.15" stroke="#4E63D9" stroke-width="2"/>
<text x="315.0" y="86.9" text-anchor="middle" font-family="Inter, -apple-system, BlinkMacSystemFont, 'Helvetica Neue', Arial, sans-serif" font-size="13" font-weight="normal" fill="#1A2030">Эмитент</text>
<line x1="104.0" y1="85.0" x2="117.0" y2="85.0" stroke="#4E63D9" stroke-width="2" marker-end="url(#arr-AccentA)"/>
<line x1="189.0" y1="85.0" x2="202.0" y2="85.0" stroke="#4E63D9" stroke-width="2" marker-end="url(#arr-AccentA)"/>
<line x1="262.0" y1="85.0" x2="275.0" y2="85.0" stroke="#4E63D9" stroke-width="2" marker-end="url(#arr-AccentA)"/>
<path d="M 335.0,106.0 L 335.0,136.0 L 68.0,136.0 L 68.0,106.0" fill="none" stroke="#5C647A" stroke-width="2" stroke-dasharray="6,3" marker-end="url(#arr-Muted)"/>
<text x="201.5" y="126.0" text-anchor="middle" font-family="Inter, -apple-system, BlinkMacSystemFont, 'Helvetica Neue', Arial, sans-serif" font-size="11" fill="#1A2030">ответ</text>
<rect x="407.0" y="64.0" width="75" height="42" rx="8" fill="#4E63D9" fill-opacity="0.15" stroke="#4E63D9" stroke-width="2"/>
<text x="444.5" y="86.9" text-anchor="middle" font-family="Inter, -apple-system, BlinkMacSystemFont, 'Helvetica Neue', Arial, sans-serif" font-size="13" font-weight="normal" fill="#1A2030">Эквайер</text>
<rect x="495.0" y="64.0" width="72" height="42" rx="8" fill="#4E63D9" fill-opacity="0.15" stroke="#4E63D9" stroke-width="2"/>
<text x="531.0" y="86.9" text-anchor="middle" font-family="Inter, -apple-system, BlinkMacSystemFont, 'Helvetica Neue', Arial, sans-serif" font-size="13" font-weight="normal" fill="#1A2030">Пакет</text>
<rect x="580.0" y="64.0" width="60" height="42" rx="8" fill="#7759D6" fill-opacity="0.15" stroke="#7759D6" stroke-width="2"/>
<text x="610.0" y="86.9" text-anchor="middle" font-family="Inter, -apple-system, BlinkMacSystemFont, 'Helvetica Neue', Arial, sans-serif" font-size="13" font-weight="normal" fill="#1A2030">Сеть</text>
<rect x="653.0" y="64.0" width="68" height="42" rx="8" fill="#4E63D9" fill-opacity="0.15" stroke="#4E63D9" stroke-width="2"/>
<text x="687.0" y="86.9" text-anchor="middle" font-family="Inter, -apple-system, BlinkMacSystemFont, 'Helvetica Neue', Arial, sans-serif" font-size="13" font-weight="normal" fill="#1A2030">Эмитент</text>
<line x1="482.0" y1="85.0" x2="495.0" y2="85.0" stroke="#5C647A" stroke-width="2" marker-end="url(#arr-Muted)"/>
<line x1="567.0" y1="85.0" x2="580.0" y2="85.0" stroke="#7759D6" stroke-width="2" marker-end="url(#arr-AccentB)"/>
<line x1="640.0" y1="85.0" x2="653.0" y2="85.0" stroke="#5C647A" stroke-width="2" marker-end="url(#arr-Muted)"/>
<rect x="755.0" y="64.0" width="72" height="42" rx="8" fill="#4E63D9" fill-opacity="0.15" stroke="#4E63D9" stroke-width="2"/>
<text x="791.0" y="86.9" text-anchor="middle" font-family="Inter, -apple-system, BlinkMacSystemFont, 'Helvetica Neue', Arial, sans-serif" font-size="13" font-weight="normal" fill="#1A2030">Банк A</text>
<rect x="865.0" y="64.0" width="72" height="42" rx="8" fill="#4E63D9" fill-opacity="0.15" stroke="#4E63D9" stroke-width="2"/>
<text x="901.0" y="86.9" text-anchor="middle" font-family="Inter, -apple-system, BlinkMacSystemFont, 'Helvetica Neue', Arial, sans-serif" font-size="13" font-weight="normal" fill="#1A2030">Банк B</text>
<rect x="975.0" y="64.0" width="85" height="42" rx="8" fill="#4E63D9" fill-opacity="0.15" stroke="#4E63D9" stroke-width="2"/>
<text x="1017.5" y="86.9" text-anchor="middle" font-family="Inter, -apple-system, BlinkMacSystemFont, 'Helvetica Neue', Arial, sans-serif" font-size="13" font-weight="normal" fill="#1A2030">ТСП</text>
<line x1="827.0" y1="85.0" x2="865.0" y2="85.0" stroke="#B8821C" stroke-width="2" marker-end="url(#arr-Warn)"/>
<text x="846.0" y="75.0" text-anchor="middle" font-family="Inter, -apple-system, BlinkMacSystemFont, 'Helvetica Neue', Arial, sans-serif" font-size="11" fill="#1A2030">деньги</text>
<line x1="937.0" y1="85.0" x2="975.0" y2="85.0" stroke="#5C647A" stroke-width="2" marker-end="url(#arr-Muted)"/>
<rect x="22.0" y="263.0" width="698" height="12" rx="8" fill="#4E63D9" fill-opacity="0.15" stroke="none" stroke-width="2"/>
<rect x="745.0" y="280.0" width="320" height="12" rx="8" fill="#B8821C" stroke="none" stroke-width="2"/>
</svg>
