<svg xmlns="http://www.w3.org/2000/svg" viewBox="0 0 480 410" width="480" height="410">
<defs>
  <marker id="arr-Muted" viewBox="0 0 10 10" refX="9" refY="5" markerWidth="5" markerHeight="5" orient="auto"><path d="M0,0 L10,5 L0,10 Z" fill="#5C647A"/></marker>
  <marker id="arr-Muted-s" viewBox="0 0 10 10" refX="1" refY="5" markerWidth="5" markerHeight="5" orient="auto"><path d="M10,0 L0,5 L10,10 Z" fill="#5C647A"/></marker>
  <marker id="arr-Good" viewBox="0 0 10 10" refX="9" refY="5" markerWidth="5" markerHeight="5" orient="auto"><path d="M0,0 L10,5 L0,10 Z" fill="#2F8B67"/></marker>
  <marker id="arr-Good-s" viewBox="0 0 10 10" refX="1" refY="5" markerWidth="5" markerHeight="5" orient="auto"><path d="M10,0 L0,5 L10,10 Z" fill="#2F8B67"/></marker>
  <marker id="arr-AccentA" viewBox="0 0 10 10" refX="9" refY="5" markerWidth="5" markerHeight="5" orient="auto"><path d="M0,0 L10,5 L0,10 Z" fill="#4E63D9"/></marker>
  <marker id="arr-AccentA-s" viewBox="0 0 10 10" refX="1" refY="5" markerWidth="5" markerHeight="5" orient="auto"><path d="M10,0 L0,5 L10,10 Z" fill="#4E63D9"/></marker>
  <marker id="arr-Bad" viewBox="0 0 10 10" refX="9" refY="5" markerWidth="5" markerHeight="5" orient="auto"><path d="M0,0 L10,5 L0,10 Z" fill="#C15462"/></marker>
  <marker id="arr-Bad-s" viewBox="0 0 10 10" refX="1" refY="5" markerWidth="5" markerHeight="5" orient="auto"><path d="M10,0 L0,5 L10,10 Z" fill="#C15462"/></marker>
</defs>
<rect x="150.0" y="20.0" width="160" height="46" rx="8" fill="#7759D6" fill-opacity="0.15" stroke="#7759D6" stroke-width="2"/>
<text x="230.0" y="45.0" text-anchor="middle" font-family="Inter, -apple-system, BlinkMacSystemFont, 'Helvetica Neue', Arial, sans-serif" font-size="10" font-weight="normal" fill="#1A2030">TVR &amp; TAC/IAC</text>
<line x1="230.0" y1="66.0" x2="230.0" y2="102.0" stroke="#5C647A" stroke-width="2" marker-end="url(#arr-Muted)"/>
<polygon points="230.0,102.0 310.0,142.0 230.0,182.0 150.0,142.0" fill="#B8821C" fill-opacity="0.18" stroke="#B8821C" stroke-width="2"/>
<text x="230.0" y="143.9" text-anchor="middle" font-family="Inter, -apple-system, BlinkMacSystemFont, 'Helvetica Neue', Arial, sans-serif" font-size="10" font-weight="normal" fill="#1A2030">Отказ ≠ 0?</text>
<line x1="150.0" y1="142.0" x2="70.0" y2="200.0" stroke="#C15462" stroke-width="2" marker-end="url(#arr-Bad)"/>
<text x="110.0" y="161.0" text-anchor="middle" font-family="Inter, -apple-system, BlinkMacSystemFont, 'Helvetica Neue', Arial, sans-serif" font-size="10" fill="#1A2030">Да</text>
<rect x="20.0" y="200.0" width="100" height="44" rx="8" fill="#C15462" fill-opacity="0.15" stroke="#C15462" stroke-width="2"/>
<text x="70.0" y="224.0" text-anchor="middle" font-family="Inter, -apple-system, BlinkMacSystemFont, 'Helvetica Neue', Arial, sans-serif" font-size="10" font-weight="normal" fill="#1A2030">AAC</text>
<line x1="230.0" y1="182.0" x2="230.0" y2="230.0" stroke="#5C647A" stroke-width="2" marker-end="url(#arr-Muted)"/>
<text x="218.0" y="206.0" text-anchor="middle" font-family="Inter, -apple-system, BlinkMacSystemFont, 'Helvetica Neue', Arial, sans-serif" font-size="10" fill="#1A2030">Нет</text>
<polygon points="230.0,230.0 310.0,270.0 230.0,310.0 150.0,270.0" fill="#B8821C" fill-opacity="0.18" stroke="#B8821C" stroke-width="2"/>
<text x="230.0" y="271.9" text-anchor="middle" font-family="Inter, -apple-system, BlinkMacSystemFont, 'Helvetica Neue', Arial, sans-serif" font-size="10" font-weight="normal" fill="#1A2030">Онлайн ≠ 0?</text>
<line x1="180.0" y1="292.0" x2="110.0" y2="350.0" stroke="#4E63D9" stroke-width="2" marker-end="url(#arr-AccentA)"/>
<text x="145.0" y="311.0" text-anchor="middle" font-family="Inter, -apple-system, BlinkMacSystemFont, 'Helvetica Neue', Arial, sans-serif" font-size="10" fill="#1A2030">Да</text>
<rect x="60.0" y="350.0" width="100" height="44" rx="8" fill="#4E63D9" fill-opacity="0.15" stroke="#4E63D9" stroke-width="2"/>
<text x="110.0" y="374.0" text-anchor="middle" font-family="Inter, -apple-system, BlinkMacSystemFont, 'Helvetica Neue', Arial, sans-serif" font-size="10" font-weight="normal" fill="#1A2030">ARQC</text>
<line x1="280.0" y1="292.0" x2="350.0" y2="350.0" stroke="#2F8B67" stroke-width="2" marker-end="url(#arr-Good)"/>
<text x="315.0" y="311.0" text-anchor="middle" font-family="Inter, -apple-system, BlinkMacSystemFont, 'Helvetica Neue', Arial, sans-serif" font-size="10" fill="#1A2030">Нет</text>
<rect x="300.0" y="350.0" width="100" height="44" rx="8" fill="#2F8B67" fill-opacity="0.15" stroke="#2F8B67" stroke-width="2"/>
<text x="350.0" y="374.0" text-anchor="middle" font-family="Inter, -apple-system, BlinkMacSystemFont, 'Helvetica Neue', Arial, sans-serif" font-size="10" font-weight="normal" fill="#1A2030">TC</text>
<!-- 2nd GENERATE AC: dashed return path from ARQC back to top decision -->
<path d="M 160 372 C 430 372 460 200 320 44" fill="none" stroke="#5C647A" stroke-width="1.5" stroke-dasharray="6,3" marker-end="url(#arr-Muted)"/>
</svg>
