<svg xmlns="http://www.w3.org/2000/svg" viewBox="0 0 420 414" width="420" height="414">
<defs>
  <marker id="arr-1e1e1e" viewBox="0 0 10 10" refX="9" refY="5" markerWidth="5" markerHeight="5" orient="auto"><path d="M0,0 L10,5 L0,10 Z" fill="#1A2030"/></marker>
  <marker id="arr-1e1e1e-s" viewBox="0 0 10 10" refX="1" refY="5" markerWidth="5" markerHeight="5" orient="auto"><path d="M10,0 L0,5 L10,10 Z" fill="#1A2030"/></marker>
  <marker id="arr-22c55e" viewBox="0 0 10 10" refX="9" refY="5" markerWidth="5" markerHeight="5" orient="auto"><path d="M0,0 L10,5 L0,10 Z" fill="#2F8B67"/></marker>
  <marker id="arr-22c55e-s" viewBox="0 0 10 10" refX="1" refY="5" markerWidth="5" markerHeight="5" orient="auto"><path d="M10,0 L0,5 L10,10 Z" fill="#2F8B67"/></marker>
  <marker id="arr-4a9eed" viewBox="0 0 10 10" refX="9" refY="5" markerWidth="5" markerHeight="5" orient="auto"><path d="M0,0 L10,5 L0,10 Z" fill="#4E63D9"/></marker>
  <marker id="arr-4a9eed-s" viewBox="0 0 10 10" refX="1" refY="5" markerWidth="5" markerHeight="5" orient="auto"><path d="M10,0 L0,5 L10,10 Z" fill="#4E63D9"/></marker>
  <marker id="arr-ef4444" viewBox="0 0 10 10" refX="9" refY="5" markerWidth="5" markerHeight="5" orient="auto"><path d="M0,0 L10,5 L0,10 Z" fill="#ef4444"/></marker>
  <marker id="arr-ef4444-s" viewBox="0 0 10 10" refX="1" refY="5" markerWidth="5" markerHeight="5" orient="auto"><path d="M10,0 L0,5 L10,10 Z" fill="#ef4444"/></marker>
</defs>
<rect x="160.0" y="20.0" width="140" height="46" rx="8" fill="#7759D6" fill-opacity="0.15" stroke="#7759D6" stroke-width="2"/>
<text x="230.0" y="45.0" text-anchor="middle" font-family="Inter, -apple-system, BlinkMacSystemFont, 'Helvetica Neue', Arial, sans-serif" font-size="14" font-weight="normal" fill="#1A2030">TVR результаты</text>
<line x1="230.0" y1="66.0" x2="230.0" y2="102.0" stroke="#1A2030" stroke-width="2" marker-end="url(#arr-1e1e1e)"/>
<polygon points="230.0,102.0 310.0,142.0 230.0,182.0 150.0,142.0" fill="#B8821C" fill-opacity="0.18" stroke="#B8821C" stroke-width="2"/>
<text x="230.0" y="143.9" text-anchor="middle" font-family="Inter, -apple-system, BlinkMacSystemFont, 'Helvetica Neue', Arial, sans-serif" font-size="13" font-weight="normal" fill="#1A2030">Denial ≠ 0?</text>
<line x1="150.0" y1="142.0" x2="70.0" y2="200.0" stroke="#ef4444" stroke-width="2" marker-end="url(#arr-ef4444)"/>
<text x="110.0" y="161.0" text-anchor="middle" font-family="Inter, -apple-system, BlinkMacSystemFont, 'Helvetica Neue', Arial, sans-serif" font-size="12" fill="#1A2030">Да</text>
<rect x="20.0" y="200.0" width="100" height="44" rx="8" fill="#ffc9c9" stroke="#ef4444" stroke-width="2"/>
<text x="70.0" y="224.0" text-anchor="middle" font-family="Inter, -apple-system, BlinkMacSystemFont, 'Helvetica Neue', Arial, sans-serif" font-size="14" font-weight="normal" fill="#1A2030">AAC</text>
<line x1="230.0" y1="182.0" x2="230.0" y2="230.0" stroke="#1A2030" stroke-width="2" marker-end="url(#arr-1e1e1e)"/>
<text x="218.0" y="206.0" text-anchor="middle" font-family="Inter, -apple-system, BlinkMacSystemFont, 'Helvetica Neue', Arial, sans-serif" font-size="12" fill="#1A2030">Нет</text>
<polygon points="230.0,230.0 310.0,270.0 230.0,310.0 150.0,270.0" fill="#B8821C" fill-opacity="0.18" stroke="#B8821C" stroke-width="2"/>
<text x="230.0" y="271.9" text-anchor="middle" font-family="Inter, -apple-system, BlinkMacSystemFont, 'Helvetica Neue', Arial, sans-serif" font-size="13" font-weight="normal" fill="#1A2030">Online ≠ 0?</text>
<line x1="180.0" y1="292.0" x2="110.0" y2="350.0" stroke="#4E63D9" stroke-width="2" marker-end="url(#arr-4a9eed)"/>
<text x="145.0" y="311.0" text-anchor="middle" font-family="Inter, -apple-system, BlinkMacSystemFont, 'Helvetica Neue', Arial, sans-serif" font-size="12" fill="#1A2030">Да</text>
<rect x="60.0" y="350.0" width="100" height="44" rx="8" fill="#4E63D9" fill-opacity="0.15" stroke="#4E63D9" stroke-width="2"/>
<text x="110.0" y="374.0" text-anchor="middle" font-family="Inter, -apple-system, BlinkMacSystemFont, 'Helvetica Neue', Arial, sans-serif" font-size="14" font-weight="normal" fill="#1A2030">ARQC</text>
<line x1="280.0" y1="292.0" x2="350.0" y2="350.0" stroke="#2F8B67" stroke-width="2" marker-end="url(#arr-22c55e)"/>
<text x="315.0" y="311.0" text-anchor="middle" font-family="Inter, -apple-system, BlinkMacSystemFont, 'Helvetica Neue', Arial, sans-serif" font-size="12" fill="#1A2030">Нет</text>
<rect x="300.0" y="350.0" width="100" height="44" rx="8" fill="#2F8B67" fill-opacity="0.15" stroke="#2F8B67" stroke-width="2"/>
<text x="350.0" y="374.0" text-anchor="middle" font-family="Inter, -apple-system, BlinkMacSystemFont, 'Helvetica Neue', Arial, sans-serif" font-size="14" font-weight="normal" fill="#1A2030">TC</text>
</svg>