<svg xmlns="http://www.w3.org/2000/svg" viewBox="0 0 470 250" width="470" height="250">
<defs>
  <marker id="arr-22c55e" viewBox="0 0 10 10" refX="9" refY="5" markerWidth="5" markerHeight="5" orient="auto"><path d="M0,0 L10,5 L0,10 Z" fill="#2F8B67"/></marker>
  <marker id="arr-22c55e-s" viewBox="0 0 10 10" refX="1" refY="5" markerWidth="5" markerHeight="5" orient="auto"><path d="M10,0 L0,5 L10,10 Z" fill="#2F8B67"/></marker>
  <marker id="arr-ef4444" viewBox="0 0 10 10" refX="9" refY="5" markerWidth="5" markerHeight="5" orient="auto"><path d="M0,0 L10,5 L0,10 Z" fill="#ef4444"/></marker>
  <marker id="arr-ef4444-s" viewBox="0 0 10 10" refX="1" refY="5" markerWidth="5" markerHeight="5" orient="auto"><path d="M10,0 L0,5 L10,10 Z" fill="#ef4444"/></marker>
</defs>
<text x="240.0" y="31.9" text-anchor="middle" font-family="Inter, -apple-system, BlinkMacSystemFont, 'Helvetica Neue', Arial, sans-serif" font-size="14" fill="#1A2030">Валовой vs Нетто расчёт</text>
<text x="240.0" y="54.4" text-anchor="middle" font-family="Inter, -apple-system, BlinkMacSystemFont, 'Helvetica Neue', Arial, sans-serif" font-size="11" fill="#868e96">100 транзакций</text>
<text x="100.0" y="80.2" text-anchor="middle" font-family="Inter, -apple-system, BlinkMacSystemFont, 'Helvetica Neue', Arial, sans-serif" font-size="12" fill="#ef4444">Валовой (Gross)</text>
<line x1="30.0" y1="98.0" x2="170.0" y2="98.0" stroke="#ef4444" stroke-width="1" marker-end="url(#arr-ef4444)"/>
<line x1="30.0" y1="108.0" x2="170.0" y2="108.0" stroke="#ef4444" stroke-width="1" marker-end="url(#arr-ef4444)"/>
<line x1="30.0" y1="118.0" x2="170.0" y2="118.0" stroke="#ef4444" stroke-width="1" marker-end="url(#arr-ef4444)"/>
<line x1="30.0" y1="128.0" x2="170.0" y2="128.0" stroke="#ef4444" stroke-width="1" marker-end="url(#arr-ef4444)"/>
<line x1="30.0" y1="138.0" x2="170.0" y2="138.0" stroke="#ef4444" stroke-width="1" marker-end="url(#arr-ef4444)"/>
<line x1="30.0" y1="148.0" x2="170.0" y2="148.0" stroke="#ef4444" stroke-width="1" marker-end="url(#arr-ef4444)"/>
<line x1="30.0" y1="158.0" x2="170.0" y2="158.0" stroke="#ef4444" stroke-width="1" marker-end="url(#arr-ef4444)"/>
<line x1="30.0" y1="168.0" x2="170.0" y2="168.0" stroke="#ef4444" stroke-width="1" marker-end="url(#arr-ef4444)"/>
<line x1="30.0" y1="178.0" x2="170.0" y2="178.0" stroke="#ef4444" stroke-width="1" marker-end="url(#arr-ef4444)"/>
<line x1="30.0" y1="188.0" x2="170.0" y2="188.0" stroke="#ef4444" stroke-width="1" marker-end="url(#arr-ef4444)"/>
<text x="100.0" y="213.5" text-anchor="middle" font-family="Inter, -apple-system, BlinkMacSystemFont, 'Helvetica Neue', Arial, sans-serif" font-size="10" fill="#ef4444">100 переводов</text>
<line x1="235.0" y1="70.0" x2="235.0" y2="230.0" stroke="#5C647A" stroke-width="1" stroke-dasharray="6,3"/>
<text x="370.0" y="80.2" text-anchor="middle" font-family="Inter, -apple-system, BlinkMacSystemFont, 'Helvetica Neue', Arial, sans-serif" font-size="12" fill="#2F8B67">Нетто (Net)</text>
<line x1="290.0" y1="98.0" x2="330.0" y2="138.0" stroke="#2F8B67" stroke-width="1"/>
<line x1="310.0" y1="98.0" x2="335.0" y2="138.0" stroke="#2F8B67" stroke-width="1"/>
<line x1="330.0" y1="98.0" x2="340.0" y2="138.0" stroke="#2F8B67" stroke-width="1"/>
<line x1="350.0" y1="98.0" x2="350.0" y2="138.0" stroke="#2F8B67" stroke-width="1"/>
<line x1="370.0" y1="98.0" x2="360.0" y2="138.0" stroke="#2F8B67" stroke-width="1"/>
<line x1="390.0" y1="98.0" x2="365.0" y2="138.0" stroke="#2F8B67" stroke-width="1"/>
<line x1="410.0" y1="98.0" x2="370.0" y2="138.0" stroke="#2F8B67" stroke-width="1"/>
<line x1="430.0" y1="98.0" x2="370.0" y2="138.0" stroke="#2F8B67" stroke-width="1"/>
<line x1="450.0" y1="98.0" x2="370.0" y2="138.0" stroke="#2F8B67" stroke-width="1"/>
<line x1="270.0" y1="98.0" x2="330.0" y2="138.0" stroke="#2F8B67" stroke-width="1"/>
<rect x="310.0" y="140.0" width="80" height="30" rx="8" fill="#b2f2bb" stroke="#2F8B67" stroke-width="2"/>
<text x="350.0" y="156.4" text-anchor="middle" font-family="Inter, -apple-system, BlinkMacSystemFont, 'Helvetica Neue', Arial, sans-serif" font-size="10" font-weight="normal" fill="#1A2030">Неттинг</text>
<line x1="350.0" y1="170.0" x2="350.0" y2="200.0" stroke="#2F8B67" stroke-width="3" marker-end="url(#arr-22c55e)"/>
<text x="350.0" y="213.5" text-anchor="middle" font-family="Inter, -apple-system, BlinkMacSystemFont, 'Helvetica Neue', Arial, sans-serif" font-size="10" fill="#2F8B67">1 позиция</text>
</svg>