<svg xmlns="http://www.w3.org/2000/svg" viewBox="0 0 750 160" width="750" height="160">
<defs>
  <marker id="arr-4a9eed" viewBox="0 0 10 10" refX="9" refY="5" markerWidth="5" markerHeight="5" orient="auto"><path d="M0,0 L10,5 L0,10 Z" fill="#4E63D9"/></marker>
  <marker id="arr-4a9eed-s" viewBox="0 0 10 10" refX="1" refY="5" markerWidth="5" markerHeight="5" orient="auto"><path d="M10,0 L0,5 L10,10 Z" fill="#4E63D9"/></marker>
  <marker id="arr-6c757d" viewBox="0 0 10 10" refX="9" refY="5" markerWidth="5" markerHeight="5" orient="auto"><path d="M0,0 L10,5 L0,10 Z" fill="#6c757d"/></marker>
  <marker id="arr-6c757d-s" viewBox="0 0 10 10" refX="1" refY="5" markerWidth="5" markerHeight="5" orient="auto"><path d="M10,0 L0,5 L10,10 Z" fill="#6c757d"/></marker>
  <marker id="arr-8b5cf6" viewBox="0 0 10 10" refX="9" refY="5" markerWidth="5" markerHeight="5" orient="auto"><path d="M0,0 L10,5 L0,10 Z" fill="#7759D6"/></marker>
  <marker id="arr-8b5cf6-s" viewBox="0 0 10 10" refX="1" refY="5" markerWidth="5" markerHeight="5" orient="auto"><path d="M10,0 L0,5 L10,10 Z" fill="#7759D6"/></marker>
  <marker id="arr-f59e0b" viewBox="0 0 10 10" refX="9" refY="5" markerWidth="5" markerHeight="5" orient="auto"><path d="M0,0 L10,5 L0,10 Z" fill="#B8821C"/></marker>
  <marker id="arr-f59e0b-s" viewBox="0 0 10 10" refX="1" refY="5" markerWidth="5" markerHeight="5" orient="auto"><path d="M10,0 L0,5 L10,10 Z" fill="#B8821C"/></marker>
</defs>
<rect x="20.0" y="20.0" width="220" height="120" rx="8" fill="#4E63D9" fill-opacity="0.15" stroke="#5C647A" stroke-opacity="0.30" stroke-width="1"/>
<rect x="245.0" y="20.0" width="260" height="120" rx="8" fill="#B8821C" fill-opacity="0.18" stroke="#5C647A" stroke-opacity="0.40" stroke-width="1"/>
<rect x="510.0" y="20.0" width="220" height="120" rx="8" fill="#2F8B67" fill-opacity="0.15" stroke="#5C647A" stroke-opacity="0.40" stroke-width="1"/>
<rect x="33.0" y="43.0" width="78" height="36" rx="8" fill="#4E63D9" fill-opacity="0.15" stroke="#4E63D9" stroke-width="1.5"/>
<text x="72.0" y="62.5" text-anchor="middle" font-family="Inter, -apple-system, BlinkMacSystemFont, 'Helvetica Neue', Arial, sans-serif" font-size="10" font-weight="normal" fill="#1A2030">Терминал</text>
<rect x="130.0" y="43.0" width="95" height="36" rx="8" fill="#4E63D9" fill-opacity="0.15" stroke="#4E63D9" stroke-width="1.5"/>
<text x="177.5" y="62.5" text-anchor="middle" font-family="Inter, -apple-system, BlinkMacSystemFont, 'Helvetica Neue', Arial, sans-serif" font-size="10" font-weight="normal" fill="#1A2030">Банк-эквайер</text>
<rect x="263.0" y="43.0" width="110" height="36" rx="8" fill="#7759D6" fill-opacity="0.15" stroke="#7759D6" stroke-width="1.5"/>
<text x="318.0" y="62.5" text-anchor="middle" font-family="Inter, -apple-system, BlinkMacSystemFont, 'Helvetica Neue', Arial, sans-serif" font-size="10" font-weight="normal" fill="#1A2030">ОПКЦ (НСПК)</text>
<rect x="390.0" y="43.0" width="95" height="36" rx="8" fill="#4E63D9" fill-opacity="0.15" stroke="#4E63D9" stroke-width="1.5"/>
<text x="437.5" y="62.5" text-anchor="middle" font-family="Inter, -apple-system, BlinkMacSystemFont, 'Helvetica Neue', Arial, sans-serif" font-size="10" font-weight="normal" fill="#1A2030">Банк-эмитент</text>
<rect x="283.0" y="105.0" width="90" height="28" rx="8" fill="#B8821C" fill-opacity="0.18" stroke="#B8821C" stroke-width="1.2"/>
<text x="328.0" y="120.3" text-anchor="middle" font-family="Inter, -apple-system, BlinkMacSystemFont, 'Helvetica Neue', Arial, sans-serif" font-size="9" font-weight="normal" fill="#1A2030">нетто-позиции</text>
<rect x="523.0" y="43.0" width="110" height="36" rx="8" fill="#7759D6" fill-opacity="0.15" stroke="#7759D6" stroke-width="1.5"/>
<text x="578.0" y="62.5" text-anchor="middle" font-family="Inter, -apple-system, BlinkMacSystemFont, 'Helvetica Neue', Arial, sans-serif" font-size="10" font-weight="normal" fill="#1A2030">Банк России (расчёт)</text>
<rect x="645.0" y="43.0" width="80" height="36" rx="8" fill="#4E63D9" fill-opacity="0.15" stroke="#4E63D9" stroke-width="1.5"/>
<text x="685.0" y="62.3" text-anchor="middle" font-family="Inter, -apple-system, BlinkMacSystemFont, 'Helvetica Neue', Arial, sans-serif" font-size="9" font-weight="normal" fill="#1A2030">корсчета банков</text>
<line x1="111.0" y1="61.0" x2="130.0" y2="61.0" stroke="#4E63D9" stroke-width="2" marker-end="url(#arr-4a9eed)"/>
<line x1="225.0" y1="61.0" x2="263.0" y2="61.0" stroke="#4E63D9" stroke-width="2" marker-end="url(#arr-4a9eed)"/>
<line x1="373.0" y1="61.0" x2="390.0" y2="61.0" stroke="#4E63D9" stroke-width="2" marker-end="url(#arr-4a9eed)"/>
<text x="240.0" y="95.8" text-anchor="middle" font-family="Inter, -apple-system, BlinkMacSystemFont, 'Helvetica Neue', Arial, sans-serif" font-size="8" fill="#6c757d">ответ авторизации</text>
<line x1="390.0" y1="87.0" x2="111.0" y2="87.0" stroke="#6c757d" stroke-width="2" marker-end="url(#arr-6c757d)"/>
<line x1="318.0" y1="79.0" x2="318.0" y2="105.0" stroke="#B8821C" stroke-width="2" stroke-dasharray="6,3" marker-end="url(#arr-f59e0b)"/>
<line x1="373.0" y1="119.0" x2="523.0" y2="61.0" stroke="#7759D6" stroke-width="2" marker-end="url(#arr-8b5cf6)"/>
<line x1="633.0" y1="61.0" x2="645.0" y2="61.0" stroke="#7759D6" stroke-width="2" marker-end="url(#arr-8b5cf6)"/>
</svg>