<svg xmlns="http://www.w3.org/2000/svg" viewBox="0 0 390 375" width="390" height="375">
<defs>
  <marker id="arr-1e1e1e" viewBox="0 0 10 10" refX="9" refY="5" markerWidth="5" markerHeight="5" orient="auto"><path d="M0,0 L10,5 L0,10 Z" fill="#1A2030"/></marker>
  <marker id="arr-1e1e1e-s" viewBox="0 0 10 10" refX="1" refY="5" markerWidth="5" markerHeight="5" orient="auto"><path d="M10,0 L0,5 L10,10 Z" fill="#1A2030"/></marker>
  <marker id="arr-22c55e" viewBox="0 0 10 10" refX="9" refY="5" markerWidth="5" markerHeight="5" orient="auto"><path d="M0,0 L10,5 L0,10 Z" fill="#2F8B67"/></marker>
  <marker id="arr-22c55e-s" viewBox="0 0 10 10" refX="1" refY="5" markerWidth="5" markerHeight="5" orient="auto"><path d="M10,0 L0,5 L10,10 Z" fill="#2F8B67"/></marker>
  <marker id="arr-ef4444" viewBox="0 0 10 10" refX="9" refY="5" markerWidth="5" markerHeight="5" orient="auto"><path d="M0,0 L10,5 L0,10 Z" fill="#ef4444"/></marker>
  <marker id="arr-ef4444-s" viewBox="0 0 10 10" refX="1" refY="5" markerWidth="5" markerHeight="5" orient="auto"><path d="M10,0 L0,5 L10,10 Z" fill="#ef4444"/></marker>
</defs>
<text x="170.0" y="31.9" text-anchor="middle" font-family="Inter, -apple-system, BlinkMacSystemFont, 'Helvetica Neue', Arial, sans-serif" font-size="14" fill="#1A2030">Interchange Qualification: дерево</text>
<rect x="120.0" y="55.0" width="100" height="36" rx="8" fill="#a5d8ff" stroke="#4E63D9" stroke-width="2"/>
<text x="170.0" y="74.6" text-anchor="middle" font-family="Inter, -apple-system, BlinkMacSystemFont, 'Helvetica Neue', Arial, sans-serif" font-size="11" font-weight="normal" fill="#1A2030">Region</text>
<line x1="170.0" y1="93.0" x2="170.0" y2="115.0" stroke="#1A2030" stroke-width="1.5" marker-end="url(#arr-1e1e1e)"/>
<rect x="120.0" y="117.0" width="100" height="36" rx="8" fill="#d0bfff" stroke="#7759D6" stroke-width="2"/>
<text x="170.0" y="136.6" text-anchor="middle" font-family="Inter, -apple-system, BlinkMacSystemFont, 'Helvetica Neue', Arial, sans-serif" font-size="11" font-weight="normal" fill="#1A2030">Product</text>
<line x1="170.0" y1="155.0" x2="170.0" y2="177.0" stroke="#1A2030" stroke-width="1.5" marker-end="url(#arr-1e1e1e)"/>
<rect x="120.0" y="179.0" width="100" height="36" rx="8" fill="#c3fae8" stroke="#06b6d4" stroke-width="2"/>
<text x="170.0" y="198.6" text-anchor="middle" font-family="Inter, -apple-system, BlinkMacSystemFont, 'Helvetica Neue', Arial, sans-serif" font-size="11" font-weight="normal" fill="#1A2030">MCC</text>
<line x1="170.0" y1="217.0" x2="170.0" y2="239.0" stroke="#1A2030" stroke-width="1.5" marker-end="url(#arr-1e1e1e)"/>
<rect x="120.0" y="241.0" width="100" height="36" rx="8" fill="#ffd8a8" stroke="#B8821C" stroke-width="2"/>
<text x="170.0" y="260.6" text-anchor="middle" font-family="Inter, -apple-system, BlinkMacSystemFont, 'Helvetica Neue', Arial, sans-serif" font-size="11" font-weight="normal" fill="#1A2030">Data Quality</text>
<line x1="170.0" y1="279.0" x2="170.0" y2="301.0" stroke="#2F8B67" stroke-width="1.5" marker-end="url(#arr-22c55e)"/>
<text x="175.0" y="290.6" text-anchor="start" font-family="Inter, -apple-system, BlinkMacSystemFont, 'Helvetica Neue', Arial, sans-serif" font-size="9" fill="#2F8B67">OK</text>
<rect x="120.0" y="305.0" width="100" height="36" rx="8" fill="#b2f2bb" stroke="#2F8B67" stroke-width="2"/>
<text x="170.0" y="324.6" text-anchor="middle" font-family="Inter, -apple-system, BlinkMacSystemFont, 'Helvetica Neue', Arial, sans-serif" font-size="11" font-weight="normal" fill="#1A2030">Rate</text>
<path d="M 220.0,259.0 L 310.0,259.0 L 310.0,305.0" fill="none" stroke="#ef4444" stroke-width="2" marker-end="url(#arr-ef4444)"/>
<text x="270.0" y="252.7" text-anchor="middle" font-family="Inter, -apple-system, BlinkMacSystemFont, 'Helvetica Neue', Arial, sans-serif" font-size="9" fill="#ef4444">ошибки</text>
<rect x="250.0" y="305.0" width="120" height="50" rx="8" fill="#ffc9c9" stroke="#ef4444" stroke-width="2"/>
<text x="310.0" y="324.7" text-anchor="middle" font-family="Inter, -apple-system, BlinkMacSystemFont, 'Helvetica Neue', Arial, sans-serif" font-size="10" font-weight="normal" fill="#ef4444">Downgrade</text>
<text x="310.0" y="338.2" text-anchor="middle" font-family="Inter, -apple-system, BlinkMacSystemFont, 'Helvetica Neue', Arial, sans-serif" font-size="10" font-weight="normal" fill="#ef4444">(повышенная ставка)</text>
</svg>